<mxfile host="65bd71144e">
    <diagram name="CRASH Trials Dashboard" id="crash-trials">
        <mxGraphModel dx="690" dy="428" grid="1" gridSize="10" guides="1" tooltips="1" connect="1" arrows="1" fold="1" page="1" pageScale="1" pageWidth="1100" pageHeight="850" math="0" shadow="0">
            <root>
                <mxCell id="0"/>
                <mxCell id="1" parent="0"/>
                <mxCell id="2" value="&lt;font style=&quot;font-size: 20px;&quot;&gt;&lt;b&gt;CRASH Trials Carbon Reduction: A Case Study&lt;/b&gt;&lt;/font&gt;" style="text;html=1;strokeColor=none;fillColor=none;align=center;verticalAlign=middle;whiteSpace=wrap;rounded=0;fontColor=#00539B;" parent="1" vertex="1">
                    <mxGeometry x="270" y="20" width="560" height="30" as="geometry"/>
                </mxCell>
                <mxCell id="3" value="" style="rounded=1;whiteSpace=wrap;html=1;fillColor=#F5F5F5;strokeColor=#666666;" parent="1" vertex="1">
                    <mxGeometry x="180" y="60" width="740" height="300" as="geometry"/>
                </mxCell>
                <mxCell id="4" value="" style="rounded=1;whiteSpace=wrap;html=1;fillColor=#B22222;strokeColor=#B22222;" parent="1" vertex="1">
                    <mxGeometry x="300" y="120" width="60" height="200" as="geometry"/>
                </mxCell>
                <mxCell id="5" value="683 tCO₂e" style="text;html=1;strokeColor=none;fillColor=none;align=center;verticalAlign=middle;whiteSpace=wrap;rounded=0;fontColor=#FFFFFF;fontStyle=1" parent="1" vertex="1">
                    <mxGeometry x="300" y="210" width="60" height="20" as="geometry"/>
                </mxCell>
                <mxCell id="6" value="CRASH-1" style="text;html=1;strokeColor=none;fillColor=none;align=center;verticalAlign=middle;whiteSpace=wrap;rounded=0;fontStyle=1" parent="1" vertex="1">
                    <mxGeometry x="300" y="330" width="60" height="20" as="geometry"/>
                </mxCell>
                <mxCell id="7" value="" style="rounded=1;whiteSpace=wrap;html=1;fillColor=#228B22;strokeColor=#228B22;" parent="1" vertex="1">
                    <mxGeometry x="750" y="263.75" width="60" height="55" as="geometry"/>
                </mxCell>
                <mxCell id="8" value="187 tCO₂e" style="text;html=1;strokeColor=none;fillColor=none;align=center;verticalAlign=middle;whiteSpace=wrap;rounded=0;fontColor=#FFFFFF;fontStyle=1" parent="1" vertex="1">
                    <mxGeometry x="750" y="280" width="60" height="22.5" as="geometry"/>
                </mxCell>
                <mxCell id="9" value="CRASH-2" style="text;html=1;strokeColor=none;fillColor=none;align=center;verticalAlign=middle;whiteSpace=wrap;rounded=0;fontStyle=1" parent="1" vertex="1">
                    <mxGeometry x="740" y="330" width="60" height="20" as="geometry"/>
                </mxCell>
                <mxCell id="10" value="" style="shape=flexArrow;endArrow=classic;html=1;rounded=0;width=20;endSize=9.33;fillColor=#00539B;strokeColor=none;" parent="1" edge="1">
                    <mxGeometry width="50" height="50" relative="1" as="geometry">
                        <mxPoint x="400" y="209" as="sourcePoint"/>
                        <mxPoint x="710" y="209" as="targetPoint"/>
                    </mxGeometry>
                </mxCell>
                <mxCell id="11" value="&lt;font color=&quot;#000000&quot;&gt;73% CARBON REDUCTION&lt;/font&gt;" style="text;html=1;align=center;verticalAlign=middle;whiteSpace=wrap;rounded=0;fontStyle=1;fontSize=16;strokeWidth=1;fillColor=#b0e3e6;strokeColor=#0e8088;" parent="1" vertex="1">
                    <mxGeometry x="430" y="195" width="220" height="30" as="geometry"/>
                </mxCell>
                <mxCell id="12" value="Per-Patient Emissions" style="text;html=1;strokeColor=none;fillColor=none;align=center;verticalAlign=middle;whiteSpace=wrap;rounded=0;fontStyle=1;fontSize=14;" parent="1" vertex="1">
                    <mxGeometry x="470" y="100" width="160" height="30" as="geometry"/>
                </mxCell>
                <mxCell id="13" value="CRASH-1: 0.07 tCO₂e/patient" style="text;html=1;strokeColor=none;fillColor=none;align=center;verticalAlign=middle;whiteSpace=wrap;rounded=0;fontColor=#B22222;fontStyle=0" parent="1" vertex="1">
                    <mxGeometry x="445" y="130" width="210" height="20" as="geometry"/>
                </mxCell>
                <mxCell id="14" value="CRASH-2: 0.01 tCO₂e/patient" style="text;html=1;strokeColor=none;fillColor=none;align=center;verticalAlign=middle;whiteSpace=wrap;rounded=0;fontColor=#228B22;fontStyle=0" parent="1" vertex="1">
                    <mxGeometry x="445" y="150" width="210" height="20" as="geometry"/>
                </mxCell>
                <mxCell id="15" value="85% per-patient reduction" style="text;html=1;strokeColor=none;fillColor=none;align=center;verticalAlign=middle;whiteSpace=wrap;rounded=0;fontStyle=1" parent="1" vertex="1">
                    <mxGeometry x="460" y="170" width="180" height="20" as="geometry"/>
                </mxCell>
                <mxCell id="16" value="&lt;b&gt;Key Interventions: How They Achieved This Reduction&lt;/b&gt;" style="text;html=1;strokeColor=none;fillColor=none;align=center;verticalAlign=middle;whiteSpace=wrap;rounded=0;fontSize=16;fontColor=#00539B;" parent="1" vertex="1">
                    <mxGeometry x="300" y="390" width="500" height="30" as="geometry"/>
                </mxCell>
                <mxCell id="17" value="" style="rounded=1;whiteSpace=wrap;html=1;fillColor=#E6F2FF;strokeColor=#00539B;" parent="1" vertex="1">
                    <mxGeometry x="190" y="430" width="220" height="140" as="geometry"/>
                </mxCell>
                <mxCell id="18" value="&lt;font style=&quot;font-size: 14px;&quot;&gt;&lt;b&gt;Remote Monitoring&lt;/b&gt;&lt;/font&gt;" style="text;html=1;strokeColor=none;fillColor=none;align=center;verticalAlign=middle;whiteSpace=wrap;rounded=0;fontColor=#00539B;" parent="1" vertex="1">
                    <mxGeometry x="225" y="440" width="150" height="20" as="geometry"/>
                </mxCell>
                <mxCell id="19" value="136 tCO₂e saved" style="text;html=1;strokeColor=none;fillColor=none;align=center;verticalAlign=middle;whiteSpace=wrap;rounded=0;fontColor=#00539B;fontStyle=1;fontSize=14;" parent="1" vertex="1">
                    <mxGeometry x="240" y="465" width="120" height="20" as="geometry"/>
                </mxCell>
                <mxCell id="20" value="• Reduced site visits from 8 to 2&#10;• Central statistical monitoring&#10;• Risk-based approach&#10;• Digital verification of records" style="text;strokeColor=none;fillColor=none;align=left;verticalAlign=middle;spacingLeft=4;spacingRight=4;overflow=hidden;points=[[0,0.5],[1,0.5]];portConstraint=eastwest;rotatable=0;whiteSpace=wrap;html=1;fontColor=#000000;" parent="1" vertex="1">
                    <mxGeometry x="200" y="490" width="200" height="70" as="geometry"/>
                </mxCell>
                <mxCell id="21" value="" style="rounded=1;whiteSpace=wrap;html=1;fillColor=#F0FFF0;strokeColor=#228B22;" parent="1" vertex="1">
                    <mxGeometry x="440" y="430" width="220" height="140" as="geometry"/>
                </mxCell>
                <mxCell id="22" value="&lt;font style=&quot;font-size: 14px;&quot;&gt;&lt;b&gt;Paperless Data Collection&lt;/b&gt;&lt;/font&gt;" style="text;html=1;strokeColor=none;fillColor=none;align=center;verticalAlign=middle;whiteSpace=wrap;rounded=0;fontColor=#228B22;" parent="1" vertex="1">
                    <mxGeometry x="475" y="440" width="150" height="20" as="geometry"/>
                </mxCell>
                <mxCell id="23" value="87 tCO₂e saved" style="text;html=1;strokeColor=none;fillColor=none;align=center;verticalAlign=middle;whiteSpace=wrap;rounded=0;fontColor=#228B22;fontStyle=1;fontSize=14;" parent="1" vertex="1">
                    <mxGeometry x="490" y="465" width="120" height="20" as="geometry"/>
                </mxCell>
                <mxCell id="24" value="• Electronic case report forms&#10;• Web-based data entry&#10;• Elimination of paper CRFs&#10;• Cloud-based document storage" style="text;strokeColor=none;fillColor=none;align=left;verticalAlign=middle;spacingLeft=4;spacingRight=4;overflow=hidden;points=[[0,0.5],[1,0.5]];portConstraint=eastwest;rotatable=0;whiteSpace=wrap;html=1;fontColor=#000000;" parent="1" vertex="1">
                    <mxGeometry x="450" y="490" width="200" height="70" as="geometry"/>
                </mxCell>
                <mxCell id="25" value="" style="rounded=1;whiteSpace=wrap;html=1;fillColor=#FFF0F0;strokeColor=#B22222;" parent="1" vertex="1">
                    <mxGeometry x="690" y="430" width="220" height="140" as="geometry"/>
                </mxCell>
                <mxCell id="26" value="&lt;font style=&quot;font-size: 14px;&quot;&gt;&lt;b&gt;Shipment Optimization&lt;/b&gt;&lt;/font&gt;" style="text;html=1;strokeColor=none;fillColor=none;align=center;verticalAlign=middle;whiteSpace=wrap;rounded=0;fontColor=#B22222;" parent="1" vertex="1">
                    <mxGeometry x="725" y="440" width="150" height="20" as="geometry"/>
                </mxCell>
                <mxCell id="27" value="65 tCO₂e saved" style="text;html=1;strokeColor=none;fillColor=none;align=center;verticalAlign=middle;whiteSpace=wrap;rounded=0;fontColor=#B22222;fontStyle=1;fontSize=14;" parent="1" vertex="1">
                    <mxGeometry x="740" y="465" width="120" height="20" as="geometry"/>
                </mxCell>
                <mxCell id="28" value="• Reduced packaging weight&#10;• Batch shipping of supplies&#10;• Local lab processing&#10;• Fewer international shipments" style="text;strokeColor=none;fillColor=none;align=left;verticalAlign=middle;spacingLeft=4;spacingRight=4;overflow=hidden;points=[[0,0.5],[1,0.5]];portConstraint=eastwest;rotatable=0;whiteSpace=wrap;html=1;fontColor=#000000;" parent="1" vertex="1">
                    <mxGeometry x="700" y="490" width="200" height="70" as="geometry"/>
                </mxCell>
                <mxCell id="29" value="&lt;b&gt;Lessons Learned for TASK Trials&lt;/b&gt;" style="swimlane;fontStyle=0;childLayout=stackLayout;horizontal=1;startSize=30;horizontalStack=0;resizeParent=1;resizeParentMax=0;resizeLast=0;collapsible=1;marginBottom=0;whiteSpace=wrap;html=1;fillColor=#00539B;fontColor=#FFFFFF;" parent="1" vertex="1">
                    <mxGeometry x="340" y="590" width="420" height="150" as="geometry"/>
                </mxCell>
                <mxCell id="30" value="1. Carbon footprint reduction is compatible with high-quality research" style="text;strokeColor=none;fillColor=none;align=left;verticalAlign=middle;spacingLeft=4;spacingRight=4;overflow=hidden;points=[[0,0.5],[1,0.5]];portConstraint=eastwest;rotatable=0;whiteSpace=wrap;html=1;" parent="29" vertex="1">
                    <mxGeometry y="30" width="420" height="30" as="geometry"/>
                </mxCell>
                <mxCell id="31" value="2. Digital solutions offer the greatest immediate carbon savings" style="text;strokeColor=none;fillColor=none;align=left;verticalAlign=middle;spacingLeft=4;spacingRight=4;overflow=hidden;points=[[0,0.5],[1,0.5]];portConstraint=eastwest;rotatable=0;whiteSpace=wrap;html=1;" parent="29" vertex="1">
                    <mxGeometry y="60" width="420" height="30" as="geometry"/>
                </mxCell>
                <mxCell id="32" value="3. Changes can reduce costs while cutting carbon emissions" style="text;strokeColor=none;fillColor=none;align=left;verticalAlign=middle;spacingLeft=4;spacingRight=4;overflow=hidden;points=[[0,0.5],[1,0.5]];portConstraint=eastwest;rotatable=0;whiteSpace=wrap;html=1;" parent="29" vertex="1">
                    <mxGeometry y="90" width="420" height="30" as="geometry"/>
                </mxCell>
                <mxCell id="33" value="4. Improvements are scalable across different trial types and regions" style="text;strokeColor=none;fillColor=none;align=left;verticalAlign=middle;spacingLeft=4;spacingRight=4;overflow=hidden;points=[[0,0.5],[1,0.5]];portConstraint=eastwest;rotatable=0;whiteSpace=wrap;html=1;" parent="29" vertex="1">
                    <mxGeometry y="120" width="420" height="30" as="geometry"/>
                </mxCell>
                <mxCell id="34" value="CRASH-1: 10,008 participants, 239 hospitals, 49 countries&lt;br&gt;CRASH-2: 20,211 participants, 274 hospitals, 40 countries" style="shape=callout;whiteSpace=wrap;html=1;perimeter=calloutPerimeter;position2=0.42;fillColor=#00539B;fontColor=#FFFFFF;strokeColor=#00539B;base=20;size=30;position=0.42;" parent="1" vertex="1">
                    <mxGeometry x="430" y="256" width="310" height="85" as="geometry"/>
                </mxCell>
                <mxCell id="35" value="Source: BMJ Open: Carbon footprint of randomised controlled trials, 2023" style="text;html=1;strokeColor=none;fillColor=none;align=right;verticalAlign=middle;whiteSpace=wrap;rounded=0;fontColor=#666666;fontSize=10;" parent="1" vertex="1">
                    <mxGeometry x="440" y="750" width="370" height="20" as="geometry"/>
                </mxCell>
            </root>
        </mxGraphModel>
    </diagram>
</mxfile>